<mxfile host="app.diagrams.net" agent="Mozilla/5.0 (Windows NT 10.0; Win64; x64) AppleWebKit/537.36 (KHTML, like Gecko) Chrome/131.0.0.0 Safari/537.36" version="25.0.3">
  <diagram name="หน้า-1" id="HYy18EuYMmxv6mx-RG8S">
    <mxGraphModel dx="1034" dy="446" grid="1" gridSize="10" guides="1" tooltips="1" connect="1" arrows="1" fold="1" page="1" pageScale="1" pageWidth="827" pageHeight="1169" math="0" shadow="0">
      <root>
        <mxCell id="0" />
        <mxCell id="1" parent="0" />
        <mxCell id="JDIT0gbRzGEMO3uLMvTF-3" value="" style="edgeStyle=orthogonalEdgeStyle;rounded=0;orthogonalLoop=1;jettySize=auto;html=1;" edge="1" parent="1" source="JDIT0gbRzGEMO3uLMvTF-1" target="JDIT0gbRzGEMO3uLMvTF-2">
          <mxGeometry relative="1" as="geometry" />
        </mxCell>
        <mxCell id="JDIT0gbRzGEMO3uLMvTF-1" value="start" style="strokeWidth=2;html=1;shape=mxgraph.flowchart.terminator;whiteSpace=wrap;" vertex="1" parent="1">
          <mxGeometry x="350" y="100" width="100" height="60" as="geometry" />
        </mxCell>
        <mxCell id="JDIT0gbRzGEMO3uLMvTF-9" value="" style="edgeStyle=orthogonalEdgeStyle;rounded=0;orthogonalLoop=1;jettySize=auto;html=1;" edge="1" parent="1" source="JDIT0gbRzGEMO3uLMvTF-2" target="JDIT0gbRzGEMO3uLMvTF-8">
          <mxGeometry relative="1" as="geometry" />
        </mxCell>
        <mxCell id="JDIT0gbRzGEMO3uLMvTF-2" value="กำหนดตัวแปร&lt;div&gt;int = 10&amp;nbsp;&lt;/div&gt;&lt;div&gt;float = 20&lt;/div&gt;&lt;div&gt;char = HaHa&lt;/div&gt;&lt;div&gt;char = a&lt;/div&gt;" style="whiteSpace=wrap;html=1;strokeWidth=2;" vertex="1" parent="1">
          <mxGeometry x="302.5" y="200" width="195" height="80" as="geometry" />
        </mxCell>
        <mxCell id="JDIT0gbRzGEMO3uLMvTF-7" value="" style="edgeStyle=orthogonalEdgeStyle;rounded=0;orthogonalLoop=1;jettySize=auto;html=1;" edge="1" parent="1" target="JDIT0gbRzGEMO3uLMvTF-6">
          <mxGeometry relative="1" as="geometry">
            <mxPoint x="400" y="430" as="sourcePoint" />
          </mxGeometry>
        </mxCell>
        <mxCell id="JDIT0gbRzGEMO3uLMvTF-6" value="end" style="strokeWidth=2;html=1;shape=mxgraph.flowchart.terminator;whiteSpace=wrap;" vertex="1" parent="1">
          <mxGeometry x="350" y="480" width="100" height="60" as="geometry" />
        </mxCell>
        <mxCell id="JDIT0gbRzGEMO3uLMvTF-8" value="&#xa;&lt;span style=&quot;color: rgb(0, 0, 0); font-family: Helvetica; font-size: 12px; font-style: normal; font-variant-ligatures: normal; font-variant-caps: normal; font-weight: 400; letter-spacing: normal; orphans: 2; text-align: center; text-indent: 0px; text-transform: none; widows: 2; word-spacing: 0px; -webkit-text-stroke-width: 0px; white-space: normal; background-color: rgb(251, 251, 251); text-decoration-thickness: initial; text-decoration-style: initial; text-decoration-color: initial; display: inline !important; float: none;&quot;&gt;แสดงผลคำว่า&amp;nbsp;10 20.0 Haha a&lt;/span&gt;&#xa;&#xa;" style="shape=parallelogram;perimeter=parallelogramPerimeter;whiteSpace=wrap;html=1;fixedSize=1;strokeWidth=2;" vertex="1" parent="1">
          <mxGeometry x="290" y="340" width="220" height="90" as="geometry" />
        </mxCell>
      </root>
    </mxGraphModel>
  </diagram>
</mxfile>
